<svg width="284" height="165" viewBox="0 0 284 165" fill="none" xmlns="http://www.w3.org/2000/svg">
<g opacity="0.02">
<line x1="-75.1462" y1="207.65" x2="6.94018" y2="158.327" stroke="white"/>
<line x1="-81.863" y1="159.287" x2="0.223383" y2="109.965" stroke="white"/>
<line x1="-74.1521" y1="172.12" x2="7.93432" y2="122.798" stroke="white"/>
<line x1="-66.4392" y1="184.952" x2="15.6472" y2="135.629" stroke="white"/>
<line x1="-58.7302" y1="197.785" x2="23.3562" y2="148.463" stroke="white"/>
<line x1="-51.0192" y1="210.619" x2="31.0671" y2="161.296" stroke="white"/>
<line x1="-80.861" y1="123.757" x2="1.22534" y2="74.4345" stroke="white"/>
<line x1="-73.1579" y1="136.591" x2="8.92846" y2="87.2685" stroke="white"/>
<line x1="-65.447" y1="149.423" x2="16.6394" y2="100.101" stroke="white"/>
<line x1="-57.738" y1="162.255" x2="24.3484" y2="112.933" stroke="white"/>
<line x1="-50.0212" y1="175.089" x2="32.0652" y2="125.766" stroke="white"/>
<line x1="-42.3103" y1="187.921" x2="39.7761" y2="138.599" stroke="white"/>
<line x1="-34.6013" y1="200.753" x2="47.4851" y2="151.431" stroke="white"/>
<line x1="-26.8903" y1="213.587" x2="55.196" y2="164.264" stroke="white"/>
<line x1="-79.8688" y1="88.2272" x2="2.21752" y2="38.9047" stroke="white"/>
<line x1="-72.1579" y1="101.06" x2="9.92846" y2="51.7372" stroke="white"/>
<line x1="-64.447" y1="113.893" x2="17.6394" y2="64.5702" stroke="white"/>
<line x1="-56.736" y1="126.725" x2="25.3503" y2="77.4028" stroke="white"/>
<line x1="-49.0271" y1="139.558" x2="33.0593" y2="90.2353" stroke="white"/>
<line x1="-41.3161" y1="152.391" x2="40.7703" y2="103.068" stroke="white"/>
<line x1="-33.6032" y1="165.223" x2="48.4832" y2="115.901" stroke="white"/>
<line x1="-25.8962" y1="178.056" x2="56.1902" y2="128.734" stroke="white"/>
<line x1="-18.1833" y1="190.889" x2="63.9031" y2="141.567" stroke="white"/>
<line x1="-10.4763" y1="203.722" x2="71.6101" y2="154.4" stroke="white"/>
<line x1="-78.8728" y1="52.6974" x2="3.21362" y2="3.37493" stroke="white"/>
<line x1="-71.1618" y1="65.5299" x2="10.9246" y2="16.2074" stroke="white"/>
<line x1="-63.4548" y1="78.3639" x2="18.6316" y2="29.0414" stroke="white"/>
<line x1="-55.7419" y1="91.1959" x2="26.3445" y2="41.8735" stroke="white"/>
<line x1="-48.0329" y1="104.029" x2="34.0535" y2="54.7065" stroke="white"/>
<line x1="-40.322" y1="116.86" x2="41.7644" y2="67.538" stroke="white"/>
<line x1="-32.611" y1="129.694" x2="49.4753" y2="80.3715" stroke="white"/>
<line x1="-24.9021" y1="142.527" x2="57.1843" y2="93.2045" stroke="white"/>
<line x1="-17.1872" y1="155.359" x2="64.8992" y2="106.037" stroke="white"/>
<line x1="-9.47627" y1="168.191" x2="72.6101" y2="118.869" stroke="white"/>
<line x1="-1.76338" y1="181.024" x2="80.323" y2="131.702" stroke="white"/>
<line x1="5.94561" y1="193.858" x2="88.032" y2="144.535" stroke="white"/>
<line x1="13.6507" y1="206.69" x2="95.7371" y2="157.367" stroke="white"/>
<line x1="-70.1696" y1="30.0006" x2="11.9167" y2="-19.3219" stroke="white"/>
<line x1="-62.4528" y1="42.8322" x2="19.6335" y2="-6.49031" stroke="white"/>
<line x1="-54.7438" y1="55.6652" x2="27.3425" y2="6.3427" stroke="white"/>
<line x1="-47.0329" y1="68.4977" x2="35.0535" y2="19.1752" stroke="white"/>
<line x1="-39.322" y1="81.3307" x2="42.7644" y2="32.0082" stroke="white"/>
<line x1="-31.611" y1="94.1637" x2="50.4753" y2="44.8412" stroke="white"/>
<line x1="-23.9021" y1="106.996" x2="58.1843" y2="57.6738" stroke="white"/>
<line x1="-16.1892" y1="119.829" x2="65.8972" y2="70.5068" stroke="white"/>
<line x1="-8.48213" y1="132.662" x2="73.6042" y2="83.3393" stroke="white"/>
<line x1="-0.769238" y1="145.495" x2="81.3171" y2="96.1723" stroke="white"/>
<line x1="6.93975" y1="158.327" x2="89.0261" y2="109.005" stroke="white"/>
<line x1="14.6507" y1="171.16" x2="96.7371" y2="121.838" stroke="white"/>
<line x1="22.3616" y1="183.993" x2="104.448" y2="134.671" stroke="white"/>
<line x1="30.0726" y1="196.825" x2="112.159" y2="147.503" stroke="white"/>
<line x1="37.7835" y1="209.658" x2="119.87" y2="160.336" stroke="white"/>
<line x1="-53.7517" y1="20.1364" x2="28.3347" y2="-29.1861" stroke="white"/>
<line x1="-46.0388" y1="32.9689" x2="36.0476" y2="-16.3536" stroke="white"/>
<line x1="-38.3278" y1="45.8014" x2="43.7585" y2="-3.52107" stroke="white"/>
<line x1="-30.6188" y1="58.6334" x2="51.4675" y2="9.31096" stroke="white"/>
<line x1="-22.9079" y1="71.4664" x2="59.1785" y2="22.144" stroke="white"/>
<line x1="-15.195" y1="84.2999" x2="66.8913" y2="34.9775" stroke="white"/>
<line x1="-7.48603" y1="97.132" x2="74.6003" y2="47.8095" stroke="white"/>
<line x1="0.224903" y1="109.964" x2="82.3113" y2="60.642" stroke="white"/>
<line x1="7.93584" y1="122.797" x2="90.0222" y2="73.474" stroke="white"/>
<line x1="15.6448" y1="135.63" x2="97.7312" y2="86.3075" stroke="white"/>
<line x1="23.3597" y1="148.462" x2="105.446" y2="99.1396" stroke="white"/>
<line x1="31.0647" y1="161.297" x2="113.151" y2="111.974" stroke="white"/>
<line x1="38.7757" y1="174.129" x2="120.862" y2="124.806" stroke="white"/>
<line x1="46.4866" y1="186.961" x2="128.573" y2="137.639" stroke="white"/>
<line x1="54.1995" y1="199.795" x2="136.286" y2="150.472" stroke="white"/>
<line x1="61.9104" y1="212.626" x2="143.997" y2="163.304" stroke="white"/>
<line x1="-37.3356" y1="10.2711" x2="44.7507" y2="-39.0513" stroke="white"/>
<line x1="-29.6208" y1="23.1041" x2="52.4656" y2="-26.2183" stroke="white"/>
<line x1="-21.9138" y1="35.9362" x2="60.1726" y2="-13.3863" stroke="white"/>
<line x1="-14.2028" y1="48.7697" x2="67.8835" y2="-0.552809" stroke="white"/>
<line x1="-6.49385" y1="61.6032" x2="75.5925" y2="12.2807" stroke="white"/>
<line x1="1.21904" y1="74.4347" x2="83.3054" y2="25.1122" stroke="white"/>
<line x1="8.93193" y1="87.2677" x2="91.0183" y2="37.9452" stroke="white"/>
<line x1="16.6409" y1="100.101" x2="98.7273" y2="50.7782" stroke="white"/>
<line x1="24.3538" y1="112.933" x2="106.44" y2="63.6103" stroke="white"/>
<line x1="32.0667" y1="125.765" x2="114.153" y2="76.4428" stroke="white"/>
<line x1="39.7757" y1="138.598" x2="121.862" y2="89.2758" stroke="white"/>
<line x1="47.4866" y1="151.431" x2="129.573" y2="102.108" stroke="white"/>
<line x1="55.1937" y1="164.264" x2="137.28" y2="114.941" stroke="white"/>
<line x1="62.9085" y1="177.096" x2="144.995" y2="127.774" stroke="white"/>
<line x1="70.6175" y1="189.929" x2="152.704" y2="140.607" stroke="white"/>
<line x1="78.3265" y1="202.762" x2="160.413" y2="153.439" stroke="white"/>
<line x1="-20.9157" y1="0.406866" x2="61.1707" y2="-48.9156" stroke="white"/>
<line x1="-13.2028" y1="13.2389" x2="68.8835" y2="-36.0836" stroke="white"/>
<line x1="-5.49189" y1="26.0714" x2="76.5945" y2="-23.2511" stroke="white"/>
<line x1="2.21514" y1="38.9054" x2="84.3015" y2="-10.4171" stroke="white"/>
<line x1="9.92803" y1="51.7369" x2="92.0144" y2="2.41448" stroke="white"/>
<line x1="17.6409" y1="64.5695" x2="99.7273" y2="15.247" stroke="white"/>
<line x1="25.3479" y1="77.4034" x2="107.434" y2="28.081" stroke="white"/>
<line x1="33.0608" y1="90.235" x2="115.147" y2="40.9125" stroke="white"/>
<line x1="40.7679" y1="103.068" x2="122.854" y2="53.7455" stroke="white"/>
<line x1="48.4808" y1="115.901" x2="130.567" y2="66.579" stroke="white"/>
<line x1="56.1917" y1="128.734" x2="138.278" y2="79.4115" stroke="white"/>
<line x1="63.9007" y1="141.568" x2="145.987" y2="92.245" stroke="white"/>
<line x1="71.6116" y1="154.4" x2="153.698" y2="105.077" stroke="white"/>
<line x1="79.3245" y1="167.233" x2="161.411" y2="117.91" stroke="white"/>
<line x1="87.0335" y1="180.064" x2="169.12" y2="130.742" stroke="white"/>
<line x1="94.7425" y1="192.898" x2="176.829" y2="143.576" stroke="white"/>
<line x1="102.457" y1="205.731" x2="184.544" y2="156.408" stroke="white"/>
<line x1="3.21123" y1="3.37513" x2="85.2976" y2="-45.9473" stroke="white"/>
<line x1="10.9222" y1="16.2076" x2="93.0085" y2="-33.1148" stroke="white"/>
<line x1="18.6331" y1="29.0402" x2="100.719" y2="-20.2823" stroke="white"/>
<line x1="26.3421" y1="41.8732" x2="108.428" y2="-7.44929" stroke="white"/>
<line x1="34.055" y1="54.7062" x2="116.141" y2="5.38371" stroke="white"/>
<line x1="41.7659" y1="67.5387" x2="123.852" y2="18.2162" stroke="white"/>
<line x1="49.4788" y1="80.3707" x2="131.565" y2="31.0483" stroke="white"/>
<line x1="57.1878" y1="93.2042" x2="139.274" y2="43.8818" stroke="white"/>
<line x1="64.8948" y1="106.037" x2="146.981" y2="56.7143" stroke="white"/>
<line x1="72.6136" y1="118.868" x2="154.7" y2="69.5458" stroke="white"/>
<line x1="80.3187" y1="131.703" x2="162.405" y2="82.3803" stroke="white"/>
<line x1="88.0296" y1="144.535" x2="170.116" y2="95.2123" stroke="white"/>
<line x1="95.7405" y1="157.367" x2="177.827" y2="108.045" stroke="white"/>
<line x1="103.453" y1="170.2" x2="185.54" y2="120.877" stroke="white"/>
<line x1="111.16" y1="183.033" x2="193.247" y2="133.711" stroke="white"/>
<line x1="118.873" y1="195.866" x2="200.96" y2="146.544" stroke="white"/>
<line x1="126.586" y1="208.698" x2="208.673" y2="159.375" stroke="white"/>
<line x1="27.3401" y1="6.3429" x2="109.427" y2="-42.9796" stroke="white"/>
<line x1="35.055" y1="19.1754" x2="117.141" y2="-30.147" stroke="white"/>
<line x1="42.762" y1="32.0084" x2="124.848" y2="-17.314" stroke="white"/>
<line x1="50.4749" y1="44.8409" x2="132.561" y2="-4.48152" stroke="white"/>
<line x1="58.1839" y1="57.6749" x2="140.27" y2="8.35246" stroke="white"/>
<line x1="65.8948" y1="70.5065" x2="147.981" y2="21.184" stroke="white"/>
<line x1="73.6058" y1="83.3395" x2="155.692" y2="34.017" stroke="white"/>
<line x1="81.3167" y1="96.1725" x2="163.403" y2="46.85" stroke="white"/>
<line x1="89.0276" y1="109.005" x2="171.114" y2="59.6821" stroke="white"/>
<line x1="96.7366" y1="121.838" x2="178.823" y2="72.5151" stroke="white"/>
<line x1="104.446" y1="134.67" x2="186.532" y2="85.3476" stroke="white"/>
<line x1="112.16" y1="147.503" x2="194.247" y2="98.1806" stroke="white"/>
<line x1="119.867" y1="160.336" x2="201.954" y2="111.013" stroke="white"/>
<line x1="127.578" y1="173.168" x2="209.665" y2="123.846" stroke="white"/>
<line x1="135.287" y1="186.001" x2="217.374" y2="136.679" stroke="white"/>
<line x1="143" y1="198.834" x2="225.087" y2="149.512" stroke="white"/>
<line x1="150.711" y1="211.667" x2="232.798" y2="162.344" stroke="white"/>
<line x1="51.469" y1="9.31116" x2="133.555" y2="-40.0113" stroke="white"/>
<line x1="59.18" y1="22.1437" x2="141.266" y2="-27.1788" stroke="white"/>
<line x1="66.889" y1="34.9767" x2="148.975" y2="-14.3458" stroke="white"/>
<line x1="74.6019" y1="47.8092" x2="156.688" y2="-1.51326" stroke="white"/>
<line x1="82.3089" y1="60.6422" x2="164.395" y2="11.3197" stroke="white"/>
<line x1="90.0198" y1="73.4757" x2="172.106" y2="24.1532" stroke="white"/>
<line x1="97.7308" y1="86.3077" x2="179.817" y2="36.9853" stroke="white"/>
<line x1="105.442" y1="99.1408" x2="187.528" y2="49.8183" stroke="white"/>
<line x1="113.155" y1="111.973" x2="195.241" y2="62.6508" stroke="white"/>
<line x1="120.866" y1="124.806" x2="202.952" y2="75.4833" stroke="white"/>
<line x1="128.576" y1="137.638" x2="210.663" y2="88.3158" stroke="white"/>
<line x1="136.287" y1="150.471" x2="218.374" y2="101.149" stroke="white"/>
<line x1="143.992" y1="163.304" x2="226.079" y2="113.982" stroke="white"/>
<line x1="151.707" y1="176.136" x2="233.794" y2="126.814" stroke="white"/>
<line x1="159.418" y1="188.97" x2="241.505" y2="139.647" stroke="white"/>
<line x1="167.127" y1="201.803" x2="249.214" y2="152.48" stroke="white"/>
<line x1="174.838" y1="214.635" x2="256.925" y2="165.312" stroke="white"/>
<line x1="75.596" y1="12.2804" x2="157.682" y2="-37.0421" stroke="white"/>
<line x1="83.3089" y1="25.1119" x2="165.395" y2="-24.2105" stroke="white"/>
<line x1="91.0179" y1="37.9445" x2="173.104" y2="-11.378" stroke="white"/>
<line x1="98.7308" y1="50.778" x2="180.817" y2="1.45549" stroke="white"/>
<line x1="106.436" y1="63.61" x2="188.522" y2="14.2875" stroke="white"/>
<line x1="114.153" y1="76.4425" x2="196.239" y2="27.12" stroke="white"/>
<line x1="121.862" y1="89.2755" x2="203.948" y2="39.953" stroke="white"/>
<line x1="129.571" y1="102.109" x2="211.657" y2="52.7865" stroke="white"/>
<line x1="137.282" y1="114.942" x2="219.368" y2="65.6191" stroke="white"/>
<line x1="144.994" y1="127.774" x2="227.081" y2="78.4511" stroke="white"/>
<line x1="152.703" y1="140.607" x2="234.79" y2="91.2846" stroke="white"/>
<line x1="160.414" y1="153.439" x2="242.501" y2="104.117" stroke="white"/>
<line x1="168.125" y1="166.272" x2="250.212" y2="116.95" stroke="white"/>
<line x1="175.836" y1="179.106" x2="257.923" y2="129.783" stroke="white"/>
<line x1="183.545" y1="191.938" x2="265.632" y2="142.615" stroke="white"/>
<line x1="191.258" y1="204.771" x2="273.344" y2="155.448" stroke="white"/>
<line x1="92.012" y1="2.41517" x2="174.098" y2="-46.9073" stroke="white"/>
<line x1="99.7249" y1="15.2482" x2="181.811" y2="-34.0743" stroke="white"/>
<line x1="107.436" y1="28.0807" x2="189.522" y2="-21.2418" stroke="white"/>
<line x1="115.145" y1="40.9137" x2="197.231" y2="-8.40877" stroke="white"/>
<line x1="122.856" y1="53.7462" x2="204.942" y2="4.42375" stroke="white"/>
<line x1="130.569" y1="66.5787" x2="212.655" y2="17.2563" stroke="white"/>
<line x1="138.278" y1="79.4117" x2="220.364" y2="30.0893" stroke="white"/>
<line x1="145.987" y1="92.2443" x2="228.073" y2="42.9218" stroke="white"/>
<line x1="153.701" y1="105.077" x2="235.788" y2="55.7548" stroke="white"/>
<line x1="161.408" y1="117.91" x2="243.495" y2="68.5873" stroke="white"/>
<line x1="169.119" y1="130.742" x2="251.206" y2="81.4198" stroke="white"/>
<line x1="176.828" y1="143.575" x2="258.915" y2="94.2524" stroke="white"/>
<line x1="184.541" y1="156.408" x2="266.628" y2="107.085" stroke="white"/>
<line x1="192.254" y1="169.24" x2="274.341" y2="119.918" stroke="white"/>
<line x1="199.963" y1="182.073" x2="282.05" y2="132.751" stroke="white"/>
<line x1="207.674" y1="194.906" x2="289.76" y2="145.584" stroke="white"/>
<line x1="116.139" y1="5.38294" x2="198.225" y2="-43.9395" stroke="white"/>
<line x1="123.856" y1="18.2159" x2="205.942" y2="-31.1065" stroke="white"/>
<line x1="131.561" y1="31.0485" x2="213.647" y2="-18.274" stroke="white"/>
<line x1="139.274" y1="43.8815" x2="221.36" y2="-5.44099" stroke="white"/>
<line x1="146.985" y1="56.714" x2="229.071" y2="7.39153" stroke="white"/>
<line x1="154.696" y1="69.546" x2="236.782" y2="20.2236" stroke="white"/>
<line x1="162.405" y1="82.38" x2="244.491" y2="33.0575" stroke="white"/>
<line x1="170.116" y1="95.2125" x2="252.202" y2="45.8901" stroke="white"/>
<line x1="177.83" y1="108.046" x2="259.917" y2="58.7231" stroke="white"/>
<line x1="185.537" y1="120.878" x2="267.624" y2="71.5556" stroke="white"/>
<line x1="193.25" y1="133.71" x2="275.337" y2="84.3876" stroke="white"/>
<line x1="200.961" y1="146.543" x2="283.048" y2="97.2201" stroke="white"/>
<line x1="208.67" y1="159.376" x2="290.757" y2="110.054" stroke="white"/>
<line x1="216.383" y1="172.209" x2="298.469" y2="122.886" stroke="white"/>
<line x1="224.09" y1="185.042" x2="306.177" y2="135.719" stroke="white"/>
<line x1="140.272" y1="8.35071" x2="222.358" y2="-40.9718" stroke="white"/>
<line x1="147.981" y1="21.1842" x2="230.067" y2="-28.1383" stroke="white"/>
<line x1="155.69" y1="34.0172" x2="237.776" y2="-15.3053" stroke="white"/>
<line x1="163.405" y1="46.8483" x2="245.491" y2="-2.4742" stroke="white"/>
<line x1="171.112" y1="59.6818" x2="253.198" y2="10.3593" stroke="white"/>
<line x1="178.823" y1="72.5158" x2="260.909" y2="23.1933" stroke="white"/>
<line x1="186.532" y1="85.3483" x2="268.618" y2="36.0258" stroke="white"/>
<line x1="194.244" y1="98.1798" x2="276.331" y2="48.8573" stroke="white"/>
<line x1="201.955" y1="111.014" x2="284.042" y2="61.6913" stroke="white"/>
<line x1="209.664" y1="123.846" x2="291.751" y2="74.5238" stroke="white"/>
<line x1="217.375" y1="136.679" x2="299.462" y2="87.3564" stroke="white"/>
<line x1="225.09" y1="149.511" x2="307.177" y2="100.188" stroke="white"/>
<line x1="232.801" y1="162.344" x2="314.887" y2="113.022" stroke="white"/>
<line x1="240.51" y1="175.178" x2="322.596" y2="125.855" stroke="white"/>
<line x1="164.397" y1="11.3195" x2="246.483" y2="-38.003" stroke="white"/>
<line x1="172.11" y1="24.1525" x2="254.196" y2="-25.17" stroke="white"/>
<line x1="179.821" y1="36.9845" x2="261.907" y2="-12.338" stroke="white"/>
<line x1="187.532" y1="49.8175" x2="269.618" y2="0.495043" stroke="white"/>
<line x1="195.242" y1="62.6505" x2="277.329" y2="13.3281" stroke="white"/>
<line x1="202.951" y1="75.4835" x2="285.038" y2="26.1611" stroke="white"/>
<line x1="210.662" y1="88.316" x2="292.749" y2="38.9936" stroke="white"/>
<line x1="218.371" y1="101.149" x2="300.458" y2="51.8261" stroke="white"/>
<line x1="226.082" y1="113.981" x2="308.169" y2="64.6586" stroke="white"/>
<line x1="233.793" y1="126.814" x2="315.88" y2="77.4916" stroke="white"/>
<line x1="241.504" y1="139.647" x2="323.591" y2="90.3246" stroke="white"/>
<line x1="249.215" y1="152.48" x2="331.302" y2="103.157" stroke="white"/>
<line x1="256.924" y1="165.313" x2="339.01" y2="115.99" stroke="white"/>
<line x1="180.813" y1="1.45521" x2="262.899" y2="-47.8673" stroke="white"/>
<line x1="188.524" y1="14.2887" x2="270.61" y2="-35.0338" stroke="white"/>
<line x1="196.239" y1="27.1202" x2="278.325" y2="-22.2022" stroke="white"/>
<line x1="203.946" y1="39.9537" x2="286.032" y2="-9.36873" stroke="white"/>
<line x1="211.658" y1="52.7867" x2="293.745" y2="3.46428" stroke="white"/>
<line x1="219.369" y1="65.6188" x2="301.456" y2="16.2963" stroke="white"/>
<line x1="227.08" y1="78.4523" x2="309.167" y2="29.1298" stroke="white"/>
<line x1="234.791" y1="91.2843" x2="316.878" y2="41.9618" stroke="white"/>
<line x1="242.5" y1="104.117" x2="324.587" y2="54.7944" stroke="white"/>
<line x1="250.209" y1="116.949" x2="332.296" y2="67.6269" stroke="white"/>
<line x1="257.92" y1="129.783" x2="340.007" y2="80.4609" stroke="white"/>
<line x1="265.631" y1="142.615" x2="347.718" y2="93.2924" stroke="white"/>
<line x1="273.342" y1="155.447" x2="355.428" y2="106.125" stroke="white"/>
<line x1="204.944" y1="4.42298" x2="287.03" y2="-44.8995" stroke="white"/>
<line x1="212.653" y1="17.256" x2="294.739" y2="-32.0665" stroke="white"/>
<line x1="220.362" y1="30.0895" x2="302.448" y2="-19.233" stroke="white"/>
<line x1="228.073" y1="42.9215" x2="310.159" y2="-6.40095" stroke="white"/>
<line x1="235.783" y1="55.7545" x2="317.87" y2="6.43205" stroke="white"/>
<line x1="243.498" y1="68.5866" x2="325.585" y2="19.2641" stroke="white"/>
<line x1="251.207" y1="81.4196" x2="333.294" y2="32.0971" stroke="white"/>
<line x1="258.918" y1="94.2521" x2="341.005" y2="44.9296" stroke="white"/>
<line x1="266.629" y1="107.085" x2="348.716" y2="57.7626" stroke="white"/>
<line x1="274.34" y1="119.918" x2="356.427" y2="70.5951" stroke="white"/>
<line x1="282.051" y1="132.75" x2="364.137" y2="83.4277" stroke="white"/>
<line x1="229.073" y1="7.39173" x2="311.159" y2="-41.9307" stroke="white"/>
<line x1="236.78" y1="20.2242" x2="318.866" y2="-29.0982" stroke="white"/>
<line x1="244.492" y1="33.0577" x2="326.579" y2="-16.2647" stroke="white"/>
<line x1="252.205" y1="45.8903" x2="334.292" y2="-3.4322" stroke="white"/>
<line x1="259.912" y1="58.7228" x2="341.999" y2="9.40032" stroke="white"/>
<line x1="267.627" y1="71.5543" x2="349.714" y2="22.2319" stroke="white"/>
<line x1="275.332" y1="84.3888" x2="357.419" y2="35.0663" stroke="white"/>
<line x1="283.043" y1="97.2208" x2="365.13" y2="47.8984" stroke="white"/>
</g>
</svg>
