<svg width="15" height="15" viewBox="0 0 15 15" fill="none" xmlns="http://www.w3.org/2000/svg">
<g clip-path="url(#clip0_6446_443)">
<path d="M4.88117e-05 8.55904L0.0375488 3.10541C0.0441113 2.11814 0.756143 1.27177 1.73911 1.08314L7.17052 0.0390449C8.47552 -0.211864 9.68677 0.778591 9.67833 2.08905L9.64083 7.54359C9.6338 8.53041 8.92177 9.37632 7.9388 9.56541L2.50739 10.6095C1.20239 10.8604 -0.00885744 9.86995 4.88117e-05 8.55904Z" fill="#5B5B5B" fill-opacity="0.2"/>
<path d="M2.66021 10.7349L2.69771 5.28033C2.7038 4.29396 3.4163 3.44806 4.39927 3.25896L9.83067 2.21533C11.1357 1.96442 12.3469 2.95442 12.338 4.26533L12.3005 9.71987C12.294 10.7067 11.5819 11.5526 10.599 11.7417L5.16755 12.7858C3.86255 13.0362 2.6513 12.0462 2.66021 10.7358V10.7349Z" fill="#5B5B5B" fill-opacity="0.5"/>
<path d="M5.32278 12.9111L5.36028 7.45652C5.36684 6.46924 6.07887 5.62379 7.06184 5.4347L12.4932 4.39061C13.7982 4.1397 15.0095 5.13015 15.0006 6.44061L14.9631 11.8952C14.9565 12.8824 14.2445 13.7283 13.2615 13.917L7.83012 14.9611C6.52512 15.212 5.31387 14.2215 5.32231 12.9111H5.32278Z" fill="#5B5B5B" fill-opacity="0.8"/>
</g>
<defs>
<clipPath id="clip0_6446_443">
<rect width="15" height="15" fill="white"/>
</clipPath>
</defs>
</svg>
