<svg width="519" height="376" viewBox="0 0 519 376" fill="none" xmlns="http://www.w3.org/2000/svg">
<g clip-path="url(#clip0_6445_213)">
<rect width="519" height="376" rx="16" fill="white"/>
<line x1="104.48" y1="42.9995" x2="104.48" y2="376.001" stroke="#C5C5C5" stroke-width="2"/>
<line x1="-0.00195312" y1="41.748" x2="519.001" y2="41.748" stroke="#C5C5C5" stroke-width="2"/>
<rect x="152" y="14" width="214" height="10" rx="3" fill="white"/>
<rect x="152" y="14" width="214" height="10" rx="3" stroke="#C5C5C5" stroke-width="2"/>
<rect x="8" y="55" width="81" height="3" rx="1.5" fill="#C5C5C5"/>
<rect x="8" y="81" width="27" height="3" rx="1.5" fill="#C5C5C5"/>
<rect x="61" y="95" width="27" height="3" rx="1.5" fill="#C5C5C5"/>
<rect x="40" y="81" width="43" height="3" rx="1.5" fill="#C5C5C5"/>
<rect x="8" y="95" width="46" height="3" rx="1.5" fill="#C5C5C5"/>
<rect x="185" y="156" width="129" height="3" rx="1.5" fill="#C5C5C5"/>
<rect x="124" y="283" width="88" height="3" rx="1.5" fill="#C5C5C5"/>
<rect x="124" y="79" width="70" height="3" rx="1.5" fill="#C5C5C5"/>
<rect x="124" y="217" width="108" height="3" rx="1.5" fill="#C5C5C5"/>
<rect x="130" y="140" width="70" height="3" rx="1.5" fill="#C5C5C5"/>
<rect x="124" y="310" width="70" height="3" rx="1.5" fill="#C5C5C5"/>
<rect x="14" y="351" width="61" height="4" rx="2" fill="#C5C5C5"/>
<rect x="386" y="79" width="107" height="3" rx="1.5" fill="#C5C5C5"/>
<rect x="409" y="217" width="69" height="3" rx="1.5" fill="#C5C5C5"/>
<rect x="360" y="140" width="64" height="3" rx="1.5" fill="#C5C5C5"/>
<rect x="411" y="140" width="44" height="3" rx="1.5" fill="#C5C5C5"/>
<rect x="348" y="310" width="107" height="3" rx="1.5" fill="#C5C5C5"/>
<rect x="248" y="282" width="107" height="3" rx="1.5" fill="#C5C5C5"/>
<rect x="263" y="192" width="107" height="3" rx="1.5" fill="#C5C5C5"/>
<rect x="196" y="108" width="41" height="3" rx="1.5" fill="#C5C5C5"/>
<rect x="151" y="245" width="41" height="3" rx="1.5" fill="#C5C5C5"/>
<rect x="150" y="178" width="42" height="3" rx="1.5" fill="#C5C5C5"/>
<rect x="226" y="335" width="42" height="3" rx="1.5" fill="#C5C5C5"/>
<rect x="283" y="98" width="42" height="3" rx="1.5" fill="#C5C5C5"/>
<rect x="344" y="108" width="82" height="3" rx="1.5" fill="#C5C5C5"/>
<rect x="268" y="233" width="82" height="3" rx="1.5" fill="#C5C5C5"/>
<rect x="329" y="156" width="82" height="3" rx="1.5" fill="#C5C5C5"/>
<rect x="334" y="335" width="82" height="3" rx="1.5" fill="#C5C5C5"/>
<circle cx="88" cy="353" r="6" fill="#C5C5C5"/>
<circle cx="46.0115" cy="19.0114" r="4.00123" transform="rotate(-0.147865 46.0115 19.0114)" fill="#C5C5C5"/>
<circle cx="57.0115" cy="19.0114" r="4.00123" transform="rotate(-0.147865 57.0115 19.0114)" fill="#C5C5C5"/>
<circle cx="35.0115" cy="19.0114" r="4.00123" transform="rotate(-0.147865 35.0115 19.0114)" fill="#C5C5C5"/>
</g>
<rect x="1" y="1" width="517" height="374" rx="15" stroke="#C5C5C5" stroke-width="2"/>
<defs>
<clipPath id="clip0_6445_213">
<rect width="519" height="376" rx="16" fill="white"/>
</clipPath>
</defs>
</svg>
